<svg width="50" height="50" viewBox="0 0 50 50" fill="none" xmlns="http://www.w3.org/2000/svg">
<circle cx="25" cy="25" r="25" fill="#82D0DF"/>
<path d="M22.57 25.46L19.52 28.51M19.55 25.49L22.6 28.54" stroke="#0D0322" stroke-width="2" stroke-miterlimit="10" stroke-linecap="round" stroke-linejoin="round"/>
<path d="M26.53 27H26.54M30.47 27H30.48M28.5 28.98V28.96M28.5 25.04V25.02" stroke="#0D0322" stroke-width="2" stroke-miterlimit="10" stroke-linecap="round" stroke-linejoin="round"/>
<path d="M26.01 15L26 16.01C25.9974 16.2735 25.8908 16.5253 25.7036 16.7107C25.5163 16.896 25.2635 17 25 17H24.97C24.42 17 23.98 17.45 23.98 18C23.98 18.55 24.43 19 24.98 19H25.98M22 35H28C33 35 35 33 35 28V26C35 21 33 19 28 19H22C17 19 15 21 15 26V28C15 33 17 35 22 35Z" stroke="#0D0322" stroke-width="2" stroke-linecap="round" stroke-linejoin="round"/>
</svg>
