<svg width="20" height="20" viewBox="0 0 20 20" fill="none" xmlns="http://www.w3.org/2000/svg">
<g clip-path="url(#clip0_1_43)">
<path d="M10.125 13.75V15.5" stroke="#0D0322" stroke-width="2" stroke-linecap="round" stroke-linejoin="round"/>
<path d="M5.95831 18.3333H14.2916V17.5C14.2916 16.5833 13.5416 15.8333 12.625 15.8333H7.62498C6.70831 15.8333 5.95831 16.5833 5.95831 17.5V18.3333Z" stroke="#0D0322" stroke-width="2" stroke-miterlimit="10"/>
<path d="M5.12502 18.3333H15.125M10 13.3333C6.77502 13.3333 4.16669 10.725 4.16669 7.5V5.00001C4.16669 3.15834 5.65835 1.66667 7.50002 1.66667H12.5C14.3417 1.66667 15.8334 3.15834 15.8334 5.00001V7.5C15.8334 10.725 13.225 13.3333 10 13.3333Z" stroke="#0D0322" stroke-width="2" stroke-linecap="round" stroke-linejoin="round"/>
<path d="M4.55835 9.70833C3.93335 9.50833 3.38335 9.14167 2.95001 8.70833C2.20001 7.875 1.70001 6.875 1.70001 5.70833C1.70001 4.54167 2.61668 3.625 3.78335 3.625H4.32501C4.15835 4.00833 4.07501 4.43333 4.07501 4.875V7.375C4.07501 8.20833 4.25001 8.99167 4.55835 9.70833ZM15.4417 9.70833C16.0667 9.50833 16.6167 9.14167 17.05 8.70833C17.8 7.875 18.3 6.875 18.3 5.70833C18.3 4.54167 17.3833 3.625 16.2167 3.625H15.675C15.8417 4.00833 15.925 4.43333 15.925 4.875V7.375C15.925 8.20833 15.75 8.99167 15.4417 9.70833Z" stroke="#0D0322" stroke-width="2" stroke-linecap="round" stroke-linejoin="round"/>
</g>
<defs>
<clipPath id="clip0_1_43">
<rect width="20" height="20" fill="white"/>
</clipPath>
</defs>
</svg>
