<svg width="70" height="70" viewBox="0 0 70 70" fill="none" xmlns="http://www.w3.org/2000/svg">
<rect width="70" height="70" rx="26" fill="#DF82CB"/>
<path d="M39.5 41C42.2848 41 44.9555 39.8938 46.9246 37.9246C48.8938 35.9555 50 33.2848 50 30.5C50 27.7152 48.8938 25.0445 46.9246 23.0754C44.9555 21.1062 42.2848 20 39.5 20C36.7152 20 34.0445 21.1062 32.0754 23.0754C30.1062 25.0445 29 27.7152 29 30.5C29 33.2848 30.1062 35.9555 32.0754 37.9246C34.0445 39.8938 36.7152 41 39.5 41Z" stroke="#0D0322" stroke-width="3" stroke-miterlimit="10"/>
<path d="M30.5 50C33.2848 50 35.9555 48.8938 37.9246 46.9246C39.8938 44.9555 41 42.2848 41 39.5C41 36.7152 39.8938 34.0445 37.9246 32.0754C35.9555 30.1062 33.2848 29 30.5 29C27.7152 29 25.0445 30.1062 23.0754 32.0754C21.1062 34.0445 20 36.7152 20 39.5C20 42.2848 21.1062 44.9555 23.0754 46.9246C25.0445 48.8938 27.7152 50 30.5 50Z" stroke="#0D0322" stroke-width="3" stroke-miterlimit="10"/>
</svg>
