<svg width="253" height="200" viewBox="0 0 253 200" fill="none" xmlns="http://www.w3.org/2000/svg">
<path d="M227.303 128.766H224.191V137.329H227.303V128.766Z" fill="#D4E3ED"/>
<path d="M227.303 133.551H224.191V134.342H227.303V133.551Z" fill="#EFF5F9"/>
<path d="M47.5783 50.6267L41.2164 40.4619L1.93463 65.1994C1.05571 65.7547 0.432118 66.6351 0.199983 67.6484C-0.0321512 68.6618 0.146022 69.7258 0.69561 70.6082L39.7724 133.436C40.0425 133.872 40.3962 134.25 40.8131 134.549C41.2299 134.848 41.7017 135.061 42.2014 135.177C42.701 135.292 43.2185 135.308 43.7242 135.223C44.2299 135.137 44.7137 134.953 45.1479 134.68L95.0661 103.261C95.945 102.706 96.5686 101.826 96.8008 100.812C97.0329 99.7989 96.8547 98.7349 96.3051 97.8524L63.6236 45.2893L54.4167 51.0841C52.5391 52.266 48.7553 52.5185 47.5783 50.6267Z" fill="#DF82CA"/>
<path d="M47.3301 50.2934C47.6356 50.7891 48.0361 51.2195 48.5085 51.5598C48.9809 51.9002 49.5159 52.1438 50.0828 52.2766C50.6497 52.4095 51.2372 52.429 51.8116 52.334C52.386 52.239 52.936 52.0314 53.43 51.7231L63.6233 45.304L41.2256 40.4766L47.3301 50.2934Z" fill="#995289"/>
<path d="M48.5028 101.212C57.8355 101.212 65.4012 93.6036 65.4012 84.2182C65.4012 74.8329 57.8355 67.2246 48.5028 67.2246C39.1701 67.2246 31.6045 74.8329 31.6045 84.2182C31.6045 93.6036 39.1701 101.212 48.5028 101.212Z" fill="#EFF5F9"/>
<path d="M53.8688 79.8146L42.5461 80.2197C42.3708 80.2274 42.2006 80.2809 42.0524 80.3747C41.9042 80.4686 41.7832 80.5996 41.7013 80.7547C41.6194 80.9099 41.5795 81.0837 41.5856 81.2591C41.5916 81.4344 41.6435 81.6051 41.7359 81.7541L47.7452 91.409C47.8386 91.5573 47.9692 91.6785 48.1242 91.7605C48.2791 91.8424 48.4528 91.8823 48.628 91.876C48.8031 91.8697 48.9735 91.8176 49.1222 91.7247C49.2709 91.6319 49.3925 91.5017 49.4751 91.347L54.7981 81.2871C54.8817 81.1311 54.9225 80.9557 54.9162 80.7788C54.91 80.6019 54.8569 80.4298 54.7624 80.2801C54.668 80.1304 54.5355 80.0085 54.3785 79.9267C54.2215 79.8449 54.0456 79.8062 53.8688 79.8146Z" fill="#DF82CA"/>
<path d="M105.946 112.377H120.109C121.258 112.378 122.388 112.664 123.399 113.211C124.41 113.758 125.269 114.547 125.899 115.508L132.294 125.244C132.923 126.205 133.782 126.995 134.793 127.541C135.804 128.088 136.935 128.374 138.084 128.375H185.848L181.512 175.291L188.417 186.089H94.213C93.3744 186.087 92.5445 185.919 91.7707 185.596C90.9969 185.273 90.2944 184.8 89.7032 184.205C89.112 183.611 88.6437 182.905 88.3251 182.13C88.0065 181.354 87.8438 180.523 87.8463 179.684V118.796C87.8413 117.956 88.0022 117.123 88.3197 116.346C88.6372 115.568 89.1052 114.861 89.6967 114.264C90.2882 113.668 90.9916 113.194 91.7666 112.87C92.5417 112.547 93.373 112.379 94.213 112.377H105.946Z" fill="#FD9F00"/>
<path d="M187.292 128.395H184.399C180.665 128.395 177.637 131.422 177.637 135.157V193.219C177.637 196.954 180.665 199.981 184.399 199.981H187.292C191.027 199.981 194.054 196.954 194.054 193.219V135.157C194.054 131.422 191.027 128.395 187.292 128.395Z" fill="#FD9F00"/>
<path d="M181.66 128.395H178.767C175.032 128.395 172.005 131.422 172.005 135.157V193.219C172.005 196.954 175.032 199.981 178.767 199.981H181.66C185.394 199.981 188.422 196.954 188.422 193.219V135.157C188.422 131.422 185.394 128.395 181.66 128.395Z" fill="#FD9F00"/>
<path d="M177.637 191.727V182.796C177.64 181.36 178.017 179.949 178.731 178.702C179.444 177.456 180.47 176.416 181.707 175.686V138.992C181.712 137.995 181.52 137.006 181.143 136.083C180.765 135.159 180.209 134.319 179.507 133.611C178.804 132.903 177.969 132.34 177.049 131.955C176.129 131.57 175.142 131.37 174.144 131.367H130.092C128.726 131.366 127.382 131.025 126.181 130.376C124.98 129.726 123.959 128.788 123.211 127.645L115.615 116.08C114.865 114.943 113.846 114.01 112.647 113.363C111.449 112.717 110.109 112.378 108.748 112.377H77.977C76.9793 112.379 75.9919 112.579 75.0714 112.964C74.151 113.348 73.3155 113.911 72.6129 114.62C71.9103 115.328 71.3545 116.168 70.9772 117.091C70.5999 118.015 70.4085 119.004 70.4142 120.002V192.375C70.4092 193.372 70.6009 194.361 70.9784 195.284C71.356 196.208 71.9119 197.047 72.6143 197.756C73.3168 198.464 74.152 199.027 75.0722 199.412C75.9924 199.797 76.9795 199.996 77.977 200H181.778V198.899C180.519 198.172 179.473 197.127 178.746 195.868C178.019 194.609 177.637 193.181 177.637 191.727Z" fill="#FE8D00"/>
<path d="M238.454 95.7461L242.805 84.5616L199.697 67.4583C199.219 67.2696 198.709 67.1771 198.196 67.1862C197.683 67.1952 197.177 67.3057 196.706 67.5112C196.236 67.7167 195.811 68.0132 195.456 68.3836C195.1 68.754 194.822 69.191 194.636 69.6695L167.606 138.616C167.224 139.583 167.241 140.661 167.653 141.615C168.065 142.569 168.838 143.321 169.803 143.706L224.582 165.436C225.059 165.624 225.569 165.716 226.082 165.707C226.595 165.698 227.101 165.587 227.572 165.382C228.042 165.176 228.467 164.88 228.822 164.51C229.178 164.14 229.457 163.703 229.643 163.225L252.25 105.563L242.152 101.555C240.089 100.736 237.639 97.8191 238.454 95.7461Z" fill="#FEECB2"/>
<path d="M238.573 95.3505C238.142 96.4466 238.161 97.669 238.628 98.7504C239.095 99.8319 239.972 100.684 241.066 101.122L252.25 105.558L242.805 84.5615L238.573 95.3505Z" fill="#FDC920"/>
<path d="M210.238 120.479L224.058 113.746L229.443 127.818L236.181 110.629C236.447 109.955 236.436 109.203 236.149 108.538C235.862 107.873 235.324 107.348 234.651 107.079L202.051 94.1786C201.718 94.0461 201.362 93.9809 201.004 93.9867C200.646 93.9924 200.293 94.0691 199.964 94.2122C199.636 94.3553 199.339 94.5621 199.091 94.8205C198.843 95.0789 198.649 95.3839 198.52 95.7179L188.121 122.242C187.955 122.665 187.896 123.121 187.95 123.572L207.717 113.922L210.238 120.479Z" fill="#FDC920"/>
<path d="M189.437 125.721L189.651 125.821L195.022 127.951H195.06L189.437 125.721Z" fill="#FDC920"/>
<path d="M195.021 127.927L222.228 138.716C222.459 138.809 222.703 138.868 222.952 138.892L195.021 127.927Z" fill="#FDC920"/>
<path d="M210.238 120.479L207.717 113.902L187.95 123.552C188.003 124.002 188.166 124.432 188.426 124.803C188.685 125.173 189.033 125.474 189.437 125.678L195.06 127.889L210.238 120.479Z" fill="#FDB200"/>
<path d="M225.759 137.158L229.419 127.818L224.034 113.745L210.214 120.479L216.243 136.205L195.036 127.88H194.998L222.928 138.84C223.519 138.908 224.116 138.781 224.628 138.477C225.139 138.173 225.537 137.71 225.759 137.158Z" fill="#FE8D00"/>
<path d="M216.266 136.234L210.238 120.498L195.06 127.908L216.266 136.234Z" fill="#FE8D00"/>
<path d="M205.12 107.721C204.197 107.351 203.457 106.631 203.06 105.718C202.664 104.805 202.644 103.773 203.004 102.846C203.184 102.388 203.452 101.971 203.793 101.617C204.133 101.263 204.541 100.979 204.991 100.783C205.442 100.586 205.927 100.48 206.418 100.471C206.91 100.462 207.398 100.55 207.855 100.73C208.778 101.101 209.516 101.822 209.91 102.735C210.304 103.648 210.321 104.68 209.957 105.605C209.595 106.526 208.882 107.265 207.976 107.662C207.069 108.058 206.042 108.08 205.12 107.721Z" fill="#FEDF80"/>
<path d="M177.709 187.261L177.638 187.152V139.021C177.643 138.023 177.452 137.034 177.075 136.11C176.697 135.187 176.141 134.347 175.439 133.638C174.736 132.93 173.901 132.367 172.98 131.983C172.06 131.598 171.072 131.398 170.075 131.396H126.042C124.676 131.395 123.331 131.053 122.13 130.403C120.929 129.752 119.908 128.813 119.16 127.669L111.56 116.104C110.812 114.96 109.792 114.021 108.59 113.37C107.389 112.719 106.044 112.378 104.678 112.377H73.9076C72.91 112.379 71.9226 112.579 71.0021 112.964C70.0816 113.348 69.2462 113.911 68.5436 114.62C67.841 115.328 67.2851 116.168 66.9078 117.091C66.5305 118.015 66.3392 119.004 66.3448 120.002V159.202C84.8217 177.182 109.582 187.249 135.363 187.261H177.709Z" fill="#FDC000"/>
<path d="M73.9076 199.986H185.848L177.709 187.262H135.363C109.582 187.249 84.8217 177.183 66.3448 159.203V192.376C66.3416 193.372 66.5348 194.359 66.9131 195.281C67.2915 196.202 67.8477 197.04 68.55 197.747C69.2522 198.454 70.0868 199.015 71.0061 199.399C71.9253 199.784 72.9113 199.983 73.9076 199.986Z" fill="#FDB200"/>
<path d="M185.848 174.543C184.39 174.545 182.959 174.94 181.707 175.687V187.152L181.779 187.262V198.885C183.014 199.605 184.418 199.984 185.848 199.986C188.029 199.972 190.117 199.096 191.654 197.548C193.191 196.001 194.054 193.908 194.054 191.727V182.797C194.054 180.616 193.191 178.524 191.654 176.977C190.116 175.431 188.029 174.556 185.848 174.543Z" fill="#FD9F00"/>
<path d="M181.707 187.152V175.687C180.47 176.417 179.444 177.456 178.731 178.703C178.017 179.949 177.64 181.36 177.637 182.797V191.727C177.641 193.177 178.026 194.6 178.752 195.855C179.479 197.109 180.523 198.151 181.778 198.875V187.262L181.707 187.152Z" fill="#FE8D00"/>
<path d="M122.915 149.048H78.3818V151.84H122.915V149.048Z" fill="#FD9F00"/>
<path d="M101.928 160.537H78.3818V163.33H101.928V160.537Z" fill="#FD9F00"/>
<path d="M161.949 14.9856L162.683 2.99567L116.458 0.00772933C115.946 -0.0245601 115.432 0.0445283 114.946 0.211041C114.46 0.377554 114.012 0.638224 113.626 0.978143C113.241 1.31806 112.927 1.73055 112.702 2.19204C112.476 2.65352 112.344 3.15494 112.312 3.6676L107.585 77.6276C107.516 78.6632 107.86 79.6839 108.543 80.4657C109.225 81.2475 110.19 81.7265 111.226 81.7974L169.993 85.6098C171.028 85.6724 172.046 85.3215 172.822 84.6344C173.599 83.9473 174.071 82.98 174.135 81.9451L178.09 20.0846L167.253 19.3841C165.023 19.2316 161.806 17.2111 161.949 14.9856Z" fill="#82D0DF"/>
<path d="M161.94 14.5714C161.863 15.7458 162.255 16.9028 163.029 17.789C163.804 18.6751 164.898 19.218 166.072 19.2987L178.071 20.0755L162.684 2.99609L161.94 14.5714Z" fill="#377E8B"/>
<path d="M138.16 44.6648C137.941 48.1532 135.973 50.2452 133.223 50.0689C132.513 50.0528 131.823 49.835 131.232 49.4409C130.641 49.0468 130.175 48.4927 129.887 47.8434H129.835L129.506 53.2856L127.252 53.1378L128.205 38.4697L130.383 38.6127L130.264 40.5189H130.302C130.67 39.9003 131.205 39.3984 131.846 39.0712C132.487 38.744 133.207 38.6048 133.924 38.6699C136.692 38.8557 138.384 41.1765 138.16 44.6648ZM135.849 44.5123C135.997 42.2106 134.977 40.6571 133.195 40.5427C131.412 40.4283 130.226 41.8675 130.078 44.1406C129.93 46.4138 130.983 47.9959 132.713 48.1103C134.443 48.2246 135.701 46.8284 135.849 44.5123Z" fill="#377E8B"/>
<path d="M139.399 44.7412C139.623 41.2672 141.596 39.1751 144.345 39.3514C145.056 39.3684 145.748 39.5876 146.339 39.9835C146.93 40.3793 147.395 40.9354 147.681 41.5864H147.719L148.101 35.6582L150.36 35.8059L149.406 50.922L147.219 50.779L147.343 48.9062H147.248C146.879 49.523 146.343 50.023 145.702 50.3485C145.061 50.6739 144.342 50.8116 143.626 50.7457C140.867 50.5598 139.18 48.22 139.399 44.7412ZM141.701 44.8937C141.553 47.2192 142.573 48.7442 144.355 48.8633C146.137 48.9824 147.333 47.5719 147.481 45.2654C147.629 42.9589 146.571 41.4101 144.841 41.2957C143.111 41.1814 141.848 42.5777 141.701 44.8937Z" fill="#377E8B"/>
<path d="M152.919 41.8814L151.408 41.7861L151.523 40.0133L153.033 40.1134L153.1 39.0317C153.238 36.8967 154.301 35.9532 156.531 36.1009C156.953 36.1294 157.372 36.1915 157.784 36.2868L157.675 37.9594C157.407 37.899 157.134 37.8608 156.86 37.8451C155.878 37.7831 155.387 38.2454 155.325 39.2175L155.259 40.2564L157.479 40.3994L157.365 42.1721L155.178 42.0291L154.587 51.2598L152.328 51.1121L152.919 41.8814Z" fill="#377E8B"/>
</svg>
