<svg width="70" height="70" viewBox="0 0 70 70" fill="none" xmlns="http://www.w3.org/2000/svg">
<rect width="70" height="70" rx="26" fill="#DF82CB"/>
<path d="M35.0001 37.1452C35.6147 37.1452 36.2232 37.0241 36.791 36.7889C37.3588 36.5537 37.8747 36.209 38.3093 35.7744C38.7439 35.3398 39.0886 34.8239 39.3238 34.2561C39.559 33.6883 39.6801 33.0797 39.6801 32.4652C39.6801 31.8506 39.559 31.242 39.3238 30.6742C39.0886 30.1064 38.7439 29.5905 38.3093 29.1559C37.8747 28.7213 37.3588 28.3766 36.791 28.1414C36.2232 27.9062 35.6147 27.7852 35.0001 27.7852C33.7589 27.7852 32.5685 28.2782 31.6908 29.1559C30.8131 30.0336 30.3201 31.2239 30.3201 32.4652C30.3201 33.7064 30.8131 34.8967 31.6908 35.7744C32.5685 36.6521 33.7589 37.1452 35.0001 37.1452Z" stroke="#0D0322" stroke-width="3"/>
<path d="M22.4301 29.735C25.3851 16.745 44.6301 16.76 47.5701 29.75C49.2951 37.37 44.5551 43.82 40.4001 47.81C38.9482 49.2103 37.0097 49.9928 34.9926 49.9928C32.9754 49.9928 31.0369 49.2103 29.5851 47.81C25.4451 43.82 20.7051 37.355 22.4301 29.735Z" stroke="#0D0322" stroke-width="3"/>
</svg>
