<svg width="50" height="50" viewBox="0 0 50 50" fill="none" xmlns="http://www.w3.org/2000/svg">
<circle cx="25" cy="25" r="25" fill="#82D0DF"/>
<path d="M25 28.5C27.21 28.5 29 26.71 29 24.5V19C29 16.79 27.21 15 25 15C22.79 15 21 16.79 21 19V24.5C21 26.71 22.79 28.5 25 28.5Z" stroke="#0D0322" stroke-width="2" stroke-linecap="round" stroke-linejoin="round"/>
<path d="M17.3501 22.6501V24.3501C17.3501 28.5701 20.7801 32.0001 25.0001 32.0001M25.0001 32.0001C29.2201 32.0001 32.6501 28.5701 32.6501 24.3501V22.6501M25.0001 32.0001V35.0001M23.6101 19.4301C24.5101 19.1001 25.4901 19.1001 26.3901 19.4301M24.2001 21.5501C24.7301 21.4101 25.2801 21.4101 25.8101 21.5501" stroke="#0D0322" stroke-width="2" stroke-linecap="round" stroke-linejoin="round"/>
</svg>
