<svg width="25" height="24" viewBox="0 0 25 24" fill="none" xmlns="http://www.w3.org/2000/svg">
<path d="M12.24 17.7504H18.16C18.07 17.8304 17.98 17.9004 17.89 17.9804L13.62 21.1804C12.21 22.2304 9.91 22.2304 8.49 21.1804L4.21 17.9804C3.27 17.2804 2.5 15.7304 2.5 14.5604V7.15035C2.5 5.93035 3.43 4.58035 4.57 4.15035L9.55 2.28035C10.37 1.97035 11.73 1.97035 12.55 2.28035L17.52 4.15035C18.47 4.51035 19.28 5.51035 19.53 6.53035H12.23C12.01 6.53035 11.81 6.54035 11.62 6.54035C9.77 6.65035 9.29 7.32035 9.29 9.43035V14.8604C9.3 17.1604 9.89 17.7504 12.24 17.7504Z" stroke="#0D0322" stroke-width="2" stroke-linecap="round" stroke-linejoin="round"/>
<path d="M9.30005 11.2197H22.5" stroke="#0D0322" stroke-width="2" stroke-miterlimit="10" stroke-linecap="round" stroke-linejoin="round"/>
<path d="M22.5 9.41977V14.9698C22.48 17.1898 21.87 17.7398 19.56 17.7398H12.24C9.89005 17.7398 9.30005 17.1498 9.30005 14.8398V9.40977C9.30005 7.30977 9.78005 6.63977 11.63 6.51977C11.82 6.51977 12.02 6.50977 12.24 6.50977H19.56C21.91 6.51977 22.5 7.09977 22.5 9.41977Z" stroke="#0D0322" stroke-width="2" stroke-linecap="round" stroke-linejoin="round"/>
<path d="M11.8201 15.2598H13.1501M15.2501 15.2598H18.5201" stroke="#0D0322" stroke-width="2" stroke-miterlimit="10" stroke-linecap="round" stroke-linejoin="round"/>
</svg>
