<svg width="78" height="24" viewBox="0 0 78 24" fill="none" xmlns="http://www.w3.org/2000/svg">
<g clip-path="url(#clip0_1010_1122)">
<path d="M42.3899 11.4239C47.224 9.23125 47.9389 2.07617 41.0628 2.07617H33.0998L30.157 7.8464H31.5419L28.022 21.6372H37.2543C43.9898 21.6948 47.019 13.7635 42.3899 11.4239ZM37.2543 16.6171H34.9462L35.8117 13.5013H38.0043C40.601 14.0205 38.9855 16.7325 37.2543 16.6171ZM38.6392 9.98126H36.6774L37.2543 7.26929H39.4469C41.5656 7.78865 39.7357 10.0967 38.6392 9.98126Z" fill="#82D0DF" stroke="#82D0DF" stroke-width="0.220518"/>
<path d="M61.2918 9.44586L64.3148 4.10929L60.2243 1.97559L59.6907 2.63409C57.484 1.46599 45.9289 3.07884 45.2053 14.4775C45.6378 24.0396 56.3525 22.3195 57.4035 21.7128L60.3504 15.6209C57.4642 17.522 51.5545 18.4347 51.3045 12.724C51.8228 8.01484 57.3828 6.25622 61.2918 9.44586ZM76.3769 2.07651H67.0835L64.1295 7.674H65.6471L58.6434 21.6375H65.4225L66.8143 18.2695H70.9757L71.0794 21.6375H77.3199L76.3769 2.07651ZM68.6997 13.7349L70.9755 8.30257L71.0793 13.7349H68.6997Z" fill="#82D0DF" stroke="#82D0DF" stroke-width="0.220518"/>
<path d="M18.3386 20.7036L18.6996 20.5989L18.3037 20.0518L18.3386 20.7036ZM12.4117 20.6105L12.3419 21.0996C12.5215 21.082 12.7428 21.2369 12.8309 20.89C12.8243 20.6196 12.6185 20.6047 12.4117 20.6105ZM15.2879 20.5989C15.258 20.4657 15.1468 20.3676 14.8687 20.4593L14.9618 20.9598C15.1903 20.9091 15.3078 20.774 15.2879 20.5989ZM8.79038 20.1893L8.6792 20.634C8.85789 20.6414 9.06719 20.7864 9.18582 20.5228C9.19376 20.3577 9.20055 20.1932 8.79038 20.1893ZM15.0434 21.3325L15.125 21.845C15.3157 21.8498 15.4898 21.7351 15.4393 21.4957C15.3907 21.2654 15.1973 21.3018 15.0434 21.3325Z" fill="#82D0DF"/>
<path d="M22.6173 2.34027C16.4513 -0.800886 9.08743 -0.713526 3.21247 2.20327C0.182999 7.53637 0.0865391 14.9982 3.21247 21.6071C9.68488 24.8824 16.8434 24.6667 22.6628 21.7441C25.3978 16.133 25.8495 9.38118 22.6173 2.34027ZM12.2036 18.2649L11.8381 18.2691C11.7476 17.2591 11.5062 16.4104 10.9883 15.7608C8.61357 12.7828 3.75913 15.0248 5.00649 9.96375C5.65508 7.37637 13.053 5.85039 12.2036 18.2649ZM5.01526 13.2662C5.5338 14.3217 8.7825 14.4946 9.91023 15.3025C11.6991 16.5839 11.4423 18.2696 11.4423 18.2696H11.0204C10.1899 15.7237 7.85876 17.7394 5.99161 17.0538C4.81936 16.6369 3.96827 14.8296 5.01526 13.2662ZM10.9342 21.5656L11.109 20.1799L11.4233 20.2032L11.2835 21.7286C11.1425 22.4005 10.1407 22.3106 10.0143 21.6703L10.1773 20.0868L10.5499 20.1452L10.3869 21.4724C10.4076 21.9117 10.8482 21.8854 10.9342 21.5656ZM9.26132 21.944L8.90295 21.8574C8.94497 21.5613 9.29623 20.9587 8.60198 20.9587L8.40873 21.7463L8.0133 21.6721L8.43339 19.7815C9.4602 19.8933 9.55004 20.1791 9.57039 20.4858C9.52985 20.7237 9.46648 20.8899 9.26149 20.9306C9.5014 21.1483 9.2643 21.6046 9.26132 21.944ZM6.98516 19.8263C6.88639 19.9574 6.68867 20.4152 6.66005 20.78C6.6296 21.1667 7.00105 21.0853 7.09354 21.0401C7.16816 21.0039 7.22358 20.6933 7.22358 20.6933L6.96349 20.6066L7.05019 20.3467L7.63557 20.5417L7.3538 21.5173L7.11538 21.4521L7.13705 21.3004C6.84519 21.4334 6.31094 21.3336 6.24823 20.9969C6.18552 20.7264 6.37546 19.9062 6.68172 19.523C6.97937 19.1504 7.70456 19.5146 7.72226 19.7398C7.7398 19.9641 7.65128 20.2166 7.65128 20.2166L7.37828 20.1652C7.37828 20.1652 7.39499 20.0841 7.41882 19.9564C7.44397 19.821 7.09105 19.6855 6.98516 19.8263ZM12.3083 21.414L12.2385 22.2525L11.9475 22.241L12.0522 20.2497C12.779 20.2648 13.1957 20.3654 13.1818 20.8786C13.1384 21.5798 12.5706 21.4221 12.3083 21.414ZM13.0329 18.2694H12.5459C12.5027 16.545 12.8343 13.391 11.9283 11.0698C11.2418 9.3102 9.50454 8.51867 9.11953 7.09725C8.50999 4.8474 9.54739 2.41307 13.0329 2.22561C16.0546 2.53583 16.9829 4.86858 16.4675 7.0405C15.5814 9.21209 14.695 8.90004 13.5916 11.0632C12.6904 13.382 13.0335 16.4199 13.0329 18.2694ZM18.4331 21.4607L18.0954 21.5772L17.9905 19.5743L18.3865 19.4696L19.3646 21.123L19.0968 21.2977L18.7707 20.8321L18.398 20.9718L18.4331 21.4607ZM14.4935 18.2694H14.104C14.425 13.8408 19.9901 14.803 20.4987 13.2662C21.3782 14.7897 21.062 16.0743 20.1436 16.7328C17.8613 18.3698 15.6728 15.5214 14.4935 18.2694ZM16.5585 20.506L16.7332 21.4259C16.8419 21.6379 16.9157 21.5987 17.0825 21.5773C17.2759 21.4374 17.2356 21.301 17.199 21.1232L17.5367 21.0767C17.6247 21.7431 17.3079 21.8111 17.0709 21.8568C16.5628 21.8932 16.4632 21.7942 16.3257 21.1349C16.2457 20.5705 16.1073 19.9746 16.5819 19.8657C17.3608 19.7467 17.3148 20.0973 17.3853 20.343L17.0476 20.4014C16.9937 20.1903 16.9161 20.1066 16.7448 20.1222C16.5888 20.1938 16.5248 20.3098 16.5585 20.506ZM15.8482 21.4607C15.8644 21.7507 15.766 21.9433 15.5804 22.008L14.7885 22.171L14.4741 20.2497C14.6366 20.2232 15.4333 19.9314 15.6269 20.4595C15.7223 20.782 15.6234 20.8976 15.5104 21.0416C15.7246 21.1104 15.7969 21.2772 15.8482 21.4607ZM13.8148 11.8192C15.5789 6.85221 19.6155 7.72995 20.5107 9.96391C21.7373 14.4466 17.7879 13.2172 15.2581 15.0554C14.3019 15.887 13.7987 16.841 13.7913 18.2873H13.3578C13.3318 15.3743 13.2847 13.3116 13.8148 11.8192Z" fill="#82D0DF"/>
</g>
<defs>
<clipPath id="clip0_1010_1122">
<rect width="76.5306" height="24" fill="white" transform="translate(0.890625)"/>
</clipPath>
</defs>
</svg>
