<svg width="83" height="24" viewBox="0 0 83 24" fill="none" xmlns="http://www.w3.org/2000/svg">
<g clip-path="url(#clip0_1010_1115)">
<path d="M0.0966919 16.4925C0.0966919 15.3004 0.0758609 14.3024 0.0114746 13.4095H2.26594L2.37294 14.9415H2.43543C2.94579 14.1329 3.88128 13.1747 5.62539 13.1747C6.98698 13.1747 8.04935 13.9417 8.49627 15.0892H8.53982C8.90152 14.5154 9.32571 14.0894 9.81429 13.793C10.389 13.3877 11.0499 13.1747 11.8993 13.1747C13.6226 13.1747 15.3648 14.3441 15.3648 17.6637V23.7653H12.813V18.0444C12.813 16.323 12.2174 15.3004 10.9628 15.3004C10.0699 15.3004 9.40998 15.9405 9.13445 16.6847C9.05777 16.9687 9.01487 17.2608 9.00662 17.5549V23.7662H6.45484V17.767C6.45484 16.3239 5.88105 15.3013 4.66812 15.3013C3.69191 15.3013 3.0329 16.0683 2.79618 16.7898C2.69108 17.0454 2.64753 17.3447 2.64753 17.6401V23.7662H0.0966919V16.4925ZM25.3077 21.2788C25.3077 22.2134 25.3503 23.1271 25.4554 23.7662H23.0949L22.9254 22.6187H22.861C22.2229 23.4273 21.1378 23.9992 19.8008 23.9992C17.7158 23.9992 16.5464 22.4908 16.5464 20.9162C16.5464 18.2981 18.8625 16.982 22.6925 17.0028V16.8334C22.6925 16.1516 22.4151 15.0249 20.5857 15.0249C19.5641 15.0249 18.5017 15.3449 17.8001 15.7899L17.2897 14.0884C18.0557 13.6197 19.3955 13.1737 21.0317 13.1737C24.3505 13.1737 25.3087 15.2815 25.3087 17.5331L25.3077 21.2788ZM22.755 18.7062C20.9039 18.6627 19.1399 19.067 19.1399 20.6407C19.1399 21.6614 19.8008 22.1301 20.6293 22.1301C21.6699 22.1301 22.4369 21.4474 22.6707 20.7041C22.728 20.5183 22.7567 20.3248 22.7559 20.1303V18.7062H22.755ZM27.1143 16.4925C27.1143 15.3004 27.0926 14.3024 27.031 13.4095H29.3252L29.4521 14.9643H29.5165C29.9625 14.1547 31.0902 13.1747 32.8125 13.1747C34.621 13.1747 36.4911 14.3441 36.4911 17.6211V23.7653H33.8758V17.9185C33.8758 16.43 33.3219 15.2994 31.8979 15.2994C30.8573 15.2994 30.132 16.0446 29.8564 16.8324C29.7712 17.0653 29.7504 17.3854 29.7504 17.6808V23.7644H27.1134L27.1143 16.4925ZM47.8325 9.24902V20.8528C47.8325 21.9161 47.8761 23.0665 47.9177 23.7662H45.5799L45.473 22.1301H45.4294C44.8139 23.2777 43.5575 24.0001 42.0491 24.0001C39.5816 24.0001 37.6263 21.8953 37.6263 18.7072C37.6036 15.2398 39.7719 13.1756 42.2622 13.1756C43.6862 13.1756 44.7069 13.7712 45.1747 14.5401H45.2192V9.24997H47.8335V9.24902H47.8325ZM45.2183 17.7262C45.2183 17.5151 45.1974 17.2594 45.1539 17.0455C44.92 16.0266 44.0924 15.1962 42.9003 15.1962C41.2206 15.1962 40.2832 16.6856 40.2832 18.6201C40.2832 20.5109 41.2197 21.8943 42.8795 21.8943C43.9409 21.8943 44.8774 21.17 45.1321 20.0432C45.1965 19.8103 45.2192 19.5537 45.2192 19.2781V17.7262H45.2183ZM49.6827 23.7662V13.4095H52.3216V23.7662H49.6827ZM54.1698 16.7491C54.1698 15.3458 54.15 14.345 54.0865 13.4105H56.3618L56.4451 15.3866H56.5313C57.0417 13.9199 58.2527 13.4105 59.3615 13.4105C59.6162 13.4105 59.7639 13.3669 59.976 13.4105V15.7085C59.725 15.653 59.4689 15.6244 59.2119 15.6233C57.9544 15.6233 57.1042 16.4319 56.8712 17.5994C56.8197 17.8666 56.7915 18.1378 56.787 18.4099V23.7672H54.1698V16.7491ZM61.1898 23.7662V13.4095H63.825V23.7662H61.1898Z" fill="#82D0DF"/>
<path d="M80.2397 2.45612C78.9339 0.966715 77.5458 1.64088 76.4428 2.18911C75.9788 2.41825 72.6298 4.3167 72.6298 4.3167C70.7947 5.07324 69.3659 4.24758 68.8054 3.55258C68.7518 3.48668 68.7033 3.41671 68.6605 3.34333L68.5299 3.11703C68.309 2.73507 68.0636 2.36786 67.7951 2.01773C67.6322 1.8055 67.4557 1.60403 67.2668 1.41458C66.0112 0.146736 64.0048 -0.74047 60.6511 0.871082C59.0632 1.79143 53.8905 4.74657 53.8905 4.74657C51.9466 5.54667 50.46 4.57235 49.9771 3.85747C49.9554 3.8307 49.9364 3.80184 49.9203 3.77131L49.8569 3.66336L49.5293 3.12744C49.3814 2.89268 49.2228 2.66488 49.054 2.44476C48.8894 2.23389 48.7127 2.03281 48.5247 1.84256C47.2776 0.582291 45.2817 -0.303021 41.9573 1.27823C39.9471 2.42582 35.2715 5.0988 35.2715 5.0988L35.2696 5.1007L31.8477 7.05596L33.6183 9.22994C34.3635 9.94009 35.7639 11.1047 37.9303 10.1228C37.9303 10.1228 43.9097 6.66017 43.9333 6.64975C49.0454 3.84422 51.5679 6.52477 52.6833 8.31149C52.7221 8.36735 52.7533 8.42795 52.7884 8.48192L52.7903 8.48476C52.8045 8.50654 52.813 8.52643 52.8253 8.54726L52.9512 8.75367C53.4947 9.57744 54.3516 10.1096 55.3733 10.085C55.9367 10.0736 56.3192 9.8899 56.8759 9.58028L62.6612 6.22461L62.6736 6.21893C67.85 3.37931 70.4151 6.23503 71.5106 8.02175C71.5958 8.17609 71.6924 8.3238 71.7918 8.46109C72.3343 9.1968 73.0824 9.67875 74.033 9.65508C74.6608 9.64277 75.3643 9.26592 75.4694 9.1968L82.4051 5.19349C82.407 5.19538 81.6988 4.12449 80.2397 2.45612Z" fill="#82D0DF"/>
</g>
<defs>
<clipPath id="clip0_1010_1115">
<rect width="82.4176" height="24" fill="white"/>
</clipPath>
</defs>
</svg>
