<svg width="151" height="42" viewBox="0 0 151 42" fill="none" xmlns="http://www.w3.org/2000/svg">
<path d="M60.5 26.884V31H58.344C56.5147 31 55.0867 30.552 54.06 29.656C53.052 28.7413 52.548 27.2387 52.548 25.148V19.408H50.448V15.376H52.548V11.54H57.336V15.376H60.472V19.408H57.336V25.232C57.336 25.848 57.4573 26.2773 57.7 26.52C57.9613 26.7627 58.3907 26.884 58.988 26.884H60.5ZM62.7431 10.98C62.7431 10.252 63.0044 9.65467 63.5271 9.188C64.0497 8.70267 64.7404 8.46 65.5991 8.46C66.4577 8.46 67.1484 8.70267 67.6711 9.188C68.1937 9.65467 68.4551 10.252 68.4551 10.98C68.4551 11.6893 68.1937 12.2867 67.6711 12.772C67.1484 13.2387 66.4577 13.472 65.5991 13.472C64.7404 13.472 64.0497 13.2387 63.5271 12.772C63.0044 12.2867 62.7431 11.6893 62.7431 10.98ZM67.9791 15.376V31H63.1911V15.376H67.9791ZM78.3408 15.18C80.3568 15.18 82.0461 15.74 83.4088 16.86C84.7715 17.9613 85.6301 19.4827 85.9848 21.424H80.9168C80.7675 20.752 80.4595 20.2293 79.9928 19.856C79.5261 19.4827 78.9381 19.296 78.2288 19.296C77.3888 19.296 76.6981 19.632 76.1568 20.304C75.6155 20.9573 75.3448 21.9187 75.3448 23.188C75.3448 24.4573 75.6155 25.428 76.1568 26.1C76.6981 26.7533 77.3888 27.08 78.2288 27.08C78.9381 27.08 79.5261 26.8933 79.9928 26.52C80.4595 26.1467 80.7675 25.624 80.9168 24.952H85.9848C85.6301 26.8933 84.7715 28.424 83.4088 29.544C82.0461 30.6453 80.3568 31.196 78.3408 31.196C76.8101 31.196 75.4475 30.8787 74.2528 30.244C73.0768 29.5907 72.1528 28.6573 71.4808 27.444C70.8088 26.2307 70.4728 24.812 70.4728 23.188C70.4728 21.5453 70.7995 20.1267 71.4528 18.932C72.1248 17.7187 73.0581 16.7947 74.2528 16.16C75.4475 15.5067 76.8101 15.18 78.3408 15.18ZM97.948 31L93.272 24.364V31H88.484V10.28H93.272V21.648L97.948 15.376H103.576L97.276 23.188L103.716 31H97.948ZM120.305 22.768C120.305 23.16 120.258 23.5893 120.165 24.056H109.329C109.385 25.232 109.683 26.0813 110.225 26.604C110.766 27.108 111.457 27.36 112.297 27.36C113.006 27.36 113.594 27.1827 114.061 26.828C114.527 26.4733 114.835 26.016 114.985 25.456H120.053C119.847 26.5573 119.399 27.5467 118.709 28.424C118.018 29.2827 117.141 29.964 116.077 30.468C115.013 30.9533 113.827 31.196 112.521 31.196C110.99 31.196 109.627 30.8787 108.433 30.244C107.257 29.5907 106.333 28.6573 105.66 27.444C104.989 26.2307 104.653 24.812 104.653 23.188C104.653 21.5453 104.979 20.1267 105.633 18.932C106.305 17.7187 107.238 16.7947 108.433 16.16C109.627 15.5067 110.99 15.18 112.521 15.18C114.07 15.18 115.433 15.4973 116.609 16.132C117.785 16.7667 118.69 17.6627 119.325 18.82C119.978 19.9587 120.305 21.2747 120.305 22.768ZM115.461 22.04C115.479 21.0133 115.199 20.248 114.621 19.744C114.061 19.2213 113.361 18.96 112.521 18.96C111.643 18.96 110.915 19.2213 110.337 19.744C109.758 20.2667 109.431 21.032 109.357 22.04H115.461ZM131.648 26.884V31H129.492C127.663 31 126.235 30.552 125.208 29.656C124.2 28.7413 123.696 27.2387 123.696 25.148V19.408H121.596V15.376H123.696V11.54H128.484V15.376H131.62V19.408H128.484V25.232C128.484 25.848 128.606 26.2773 128.848 26.52C129.11 26.7627 129.539 26.884 130.136 26.884H131.648ZM137.952 15.376L141.704 24.952L145.204 15.376H150.496L140.752 38.448H135.488L139.156 30.412L132.603 15.376H137.952Z" fill="white"/>
<circle cx="20" cy="21" r="20" fill="#F7FF82"/>
<path d="M25.7583 23.2433C25.7583 24.3183 26.6416 25.1933 27.7166 25.1933C27.7166 28.3183 26.9333 29.1017 23.8083 29.1017H15.9916C12.8666 29.1017 12.0833 28.3183 12.0833 25.1933V24.81C12.602 24.8078 13.0989 24.6008 13.4656 24.234C13.8324 23.8672 14.0395 23.3704 14.0416 22.8517C14.0395 22.3329 13.8324 21.8361 13.4656 21.4693C13.0989 21.1025 12.602 20.8955 12.0833 20.8933V20.51C12.0916 17.385 12.8666 16.6017 15.9916 16.6017H23.8C26.925 16.6017 27.7083 17.385 27.7083 20.51V21.2933C26.6333 21.2933 25.7583 22.16 25.7583 23.2433Z" stroke="#0D0322" stroke-width="2" stroke-linecap="round" stroke-linejoin="round"/>
<path d="M23.5091 16.6025H15.9341L18.3758 14.1608C20.3675 12.1692 21.3675 12.1692 23.3591 14.1608L23.8591 14.6608C23.3341 15.1858 23.2091 15.9608 23.5091 16.6025Z" stroke="#0D0322" stroke-width="2" stroke-linecap="round" stroke-linejoin="round"/>
<path d="M18.2325 16.6025V29.1025" stroke="#0D0322" stroke-width="2" stroke-linecap="round" stroke-linejoin="round" stroke-dasharray="5 5"/>
</svg>
