<svg width="40" height="40" viewBox="0 0 40 40" fill="none" xmlns="http://www.w3.org/2000/svg">
<circle cx="20" cy="20" r="20" fill="#F7FF82"/>
<path d="M25.7583 22.2433C25.7583 23.3183 26.6416 24.1933 27.7166 24.1933C27.7166 27.3183 26.9333 28.1017 23.8083 28.1017H15.9916C12.8666 28.1017 12.0833 27.3183 12.0833 24.1933V23.81C12.602 23.8078 13.0989 23.6008 13.4656 23.234C13.8324 22.8672 14.0395 22.3704 14.0416 21.8517C14.0395 21.3329 13.8324 20.8361 13.4656 20.4693C13.0989 20.1025 12.602 19.8955 12.0833 19.8933V19.51C12.0916 16.385 12.8666 15.6017 15.9916 15.6017H23.8C26.925 15.6017 27.7083 16.385 27.7083 19.51V20.2933C26.6333 20.2933 25.7583 21.16 25.7583 22.2433Z" stroke="#0D0322" stroke-width="2" stroke-linecap="round" stroke-linejoin="round"/>
<path d="M23.5091 15.6025H15.9341L18.3758 13.1608C20.3675 11.1692 21.3675 11.1692 23.3591 13.1608L23.8591 13.6608C23.3341 14.1858 23.2091 14.9608 23.5091 15.6025Z" stroke="#0D0322" stroke-width="2" stroke-linecap="round" stroke-linejoin="round"/>
<path d="M18.2325 15.6025V28.1025" stroke="#0D0322" stroke-width="2" stroke-linecap="round" stroke-linejoin="round" stroke-dasharray="5 5"/>
</svg>
